<svg width="187" height="233" viewBox="0 0 187 233" fill="none" xmlns="http://www.w3.org/2000/svg">
<path d="M109.029 87.8577C85.4118 87.8577 66.3235 94.616 53.0588 107.811C54.6765 64.6865 78.9412 42.4807 116.794 42.4807C132 42.4807 146.559 45.3771 159.176 53.7445L178.588 15.4475C162.735 5.47098 139.441 0 115.5 0C47.2353 0 0 43.4461 0 121.327C0 194.059 38.8235 233 101.265 233C149.147 233 187 204.036 187 158.015C187 115.535 152.706 87.8577 109.029 87.8577ZM98.3529 194.059C73.1176 194.059 58.5588 179.899 58.5588 160.59C58.5588 140.959 74.7353 126.798 97.7059 126.798C121 126.798 136.206 139.993 136.206 160.59C136.206 181.186 120.676 194.059 98.3529 194.059Z" fill="#3E97D1" fill-opacity="0.05"/>
</svg>
