<?xml version="1.0" encoding="utf-8"?>
<!-- Generator: Adobe Illustrator 24.0.0, SVG Export Plug-In . SVG Version: 6.00 Build 0)  -->
<svg version="1.1" id="Слой_1" xmlns="http://www.w3.org/2000/svg" xmlns:xlink="http://www.w3.org/1999/xlink" x="0px" y="0px"
	 viewBox="0 0 210.6 54.8" style="enable-background:new 0 0 210.6 54.8;" xml:space="preserve">
<style type="text/css">
	.st0{enable-background:new    ;}
	.st1{fill:#3E96D1;}
	.st2{fill:#010202;}
	.st3{fill:#FFFFFF;stroke:#3E96D1;stroke-width:2.397;stroke-linecap:round;stroke-linejoin:round;}
	.st4{fill:none;stroke:#3E96D1;stroke-width:2.397;stroke-linecap:round;stroke-linejoin:round;}
</style>
<g>
	<g class="st0">
		<path class="st1" d="M69.2,41.2h-6.1v10.5h-0.8V40.4h6.9V41.2z"/>
		<path class="st1" d="M75.7,43.3l-4.3,9.5c-0.7,1.5-1.5,2-2.6,2c-0.8,0-1.5-0.3-1.9-0.8l0.4-0.6c0.4,0.4,0.9,0.7,1.6,0.7
			c0.8,0,1.3-0.4,1.8-1.5l0.4-1l-3.8-8.3h0.8l3.3,7.5l3.3-7.5H75.7z"/>
		<path class="st1" d="M77.6,43.3h0.8v3.8h5.7v-3.8h0.8v8.4h-0.8v-3.8h-5.7v3.8h-0.8V43.3z"/>
		<path class="st1" d="M94.5,43.3v8.4h-0.7v-2.9H91c-0.1,0-0.3,0-0.4,0l-2.1,2.9h-0.9l2.2-3c-1.3-0.3-2.1-1.2-2.1-2.6
			c0-1.9,1.4-2.8,3.4-2.8H94.5z M91,48.1h2.7V44h-2.6c-1.7,0-2.7,0.6-2.7,2.1C88.4,47.5,89.3,48.1,91,48.1z"/>
		<path class="st1" d="M104.7,49.4c0,1.4-1,2.2-3.2,2.2h-3.6v-8.4h3.5c1.8,0,3,0.7,3,2.1c0,1-0.6,1.6-1.6,1.9
			C104.1,47.5,104.7,48.2,104.7,49.4z M98.7,47.1h2.7c1.4,0,2.2-0.5,2.2-1.6c0-1.1-0.8-1.6-2.2-1.6h-2.7V47.1z M103.9,49.3
			c0-1.1-0.7-1.6-2.3-1.6h-2.9V51h2.8C103.1,51,103.9,50.5,103.9,49.3z"/>
		<path class="st1" d="M107.6,43.3h0.8v7.1l6-7.1h0.7v8.4h-0.8v-7.1l-6,7.1h-0.7V43.3z"/>
		<path class="st1" d="M118.5,43.3h0.8v3.8h5.7v-3.8h0.8v8.4h-0.8v-3.8h-5.7v3.8h-0.8V43.3z"/>
	</g>
	<g class="st0">
		<path class="st1" d="M69.3,33.5h-6.5l-1.4,3.2h-0.9l5.2-11.2h0.8l5.2,11.2h-0.9L69.3,33.5z M69,32.8l-2.9-6.5l-2.9,6.5H69z"/>
		<path class="st1" d="M73.7,28.3h0.8v3.8h5.7v-3.8H81v8.4h-0.8v-3.8h-5.7v3.8h-0.8V28.3z"/>
		<path class="st1" d="M92.3,35.9v2.8h-0.8v-2.1h-7.9v2.1h-0.8v-2.8h0.5c1.3-0.1,1.5-2.5,1.6-4.9l0.1-2.8h5.9v7.7H92.3z M84.5,35.9
			h5.6V29h-4.4l-0.1,2.1C85.6,33.1,85.4,35.3,84.5,35.9z"/>
		<path class="st1" d="M103,32.4c0,2.5-1.8,4.2-4.1,4.2c-1.5,0-2.7-0.7-3.4-2v5h-0.8V28.3h0.8v2c0.7-1.3,1.9-2,3.4-2
			C101.2,28.2,103,29.9,103,32.4z M102.2,32.4c0-2.1-1.5-3.5-3.4-3.5c-1.9,0-3.4,1.4-3.4,3.5s1.4,3.5,3.4,3.5
			C100.7,36,102.2,34.5,102.2,32.4z"/>
		<path class="st1" d="M112.7,32.6h-7.2c0.1,2,1.5,3.3,3.5,3.3c1.1,0,2-0.4,2.7-1.2l0.5,0.5c-0.7,0.9-1.9,1.4-3.2,1.4
			c-2.5,0-4.3-1.8-4.3-4.2c0-2.5,1.7-4.2,4-4.2c2.3,0,4,1.7,4,4.2C112.7,32.5,112.7,32.6,112.7,32.6z M105.5,32h6.4
			c-0.1-1.8-1.4-3.1-3.2-3.1C107,28.9,105.7,30.2,105.5,32z"/>
		<path class="st1" d="M115.3,28.3h0.8v7.1l6-7.1h0.7v8.4H122v-7.1l-6,7.1h-0.7V28.3z M116.8,25h0.6c0,0.9,0.7,1.4,1.7,1.4
			s1.6-0.5,1.7-1.4h0.6c0,1.2-1,2-2.3,2S116.8,26.3,116.8,25z"/>
	</g>
	<g class="st0">
		<path class="st2" d="M76.9,2.1v17.5h-3.2V4.8h-9.1v14.7h-3.2V2.1H76.9z"/>
		<path class="st2" d="M80.6,10.8c0-5.2,4-9,9.4-9c2.8,0,5.3,1,6.9,2.9l-2.1,2c-1.3-1.4-2.8-2-4.7-2c-3.6,0-6.2,2.5-6.2,6.1
			c0,3.6,2.6,6.1,6.2,6.1c1.8,0,3.4-0.7,4.7-2.1l2.1,2c-1.6,1.9-4.1,2.9-6.9,2.9C84.6,19.8,80.6,16.1,80.6,10.8z"/>
		<path class="st2" d="M99.9,2.1h3.2v12.4l9.4-12.4h3v17.5h-3.2V7.2l-9.4,12.4h-3V2.1z"/>
		<path class="st2" d="M122.5,2.1l4.1,5.8l4.1-5.8h3.8l-5.9,8.4l6.3,9.1h-3.8l-4.5-6.4l-4.5,6.4h-3.8l6.3-9l-5.9-8.5H122.5z"/>
		<path class="st2" d="M135.8,10.8c0-5.2,4-9,9.4-9s9.4,3.8,9.4,9c0,5.2-4,9-9.4,9S135.8,16,135.8,10.8z M151.4,10.8
			c0-3.6-2.6-6.1-6.1-6.1c-3.5,0-6.1,2.6-6.1,6.1s2.6,6.1,6.1,6.1C148.7,17,151.4,14.4,151.4,10.8z"/>
		<path class="st2" d="M172.7,2.1v17.5h-3.2V4.8h-6.9l-0.1,4.4c-0.2,6.9-1.3,10.6-5,10.6c-0.5,0-1.1-0.1-1.8-0.3l0.2-2.8
			c0.3,0.1,0.5,0.1,0.8,0.1c2.1,0,2.8-2.6,2.9-7.5l0.3-7.2H172.7z"/>
		<path class="st2" d="M176.3,10.8c0-5.2,4-9,9.4-9s9.4,3.8,9.4,9c0,5.2-4,9-9.4,9S176.3,16,176.3,10.8z M191.9,10.8
			c0-3.6-2.6-6.1-6.1-6.1c-3.5,0-6.1,2.6-6.1,6.1s2.6,6.1,6.1,6.1C189.2,17,191.9,14.4,191.9,10.8z"/>
		<path class="st2" d="M210.6,4.8h-8.7l0,14.7h-3.2V2.1h11.9L210.6,4.8z"/>
	</g>
	<g id="лого" transform="translate(-34.209 -14.849)">
		<path id="Path_1" class="st3" d="M84,41c0,13.8-11.5,26.7-24.3,26.7c-5.5,0-14.3-0.8-18.3-4.3c-3.1-2.7,0.2-8.3-1.2-12.4
			c-0.5-1.3-4.5-0.7-4.8-2.1c-0.3-1.5,3.6-8.6,3.6-10.2c0-5.6,0.4-8.4,3.4-12.6c4.2-6.1,11.1-9.9,18.5-9.9C73.7,16,84,27.2,84,41z"
			/>
		<path id="Path_2" class="st4" d="M76.2,44.6c2.2-7.4-0.1-16-7.6-19.8c-4.7-2.3-10.4-3.3-15.4-0.2c-5.7,3.4-9,9.3-7.5,15.9
			c1.5,7.3,8.6,11.9,15.9,10.4c1.1-0.2,2.3-0.6,3.3-1.2c7.5-3.8,9.1-14.2,2.3-19.5c-5.6-4.2-14.8-1.6-15.9,5.7
			c-0.7,4.4,2.4,8.6,6.8,9.2c1,0.2,2.1,0.1,3.1-0.1c3.1-1,5.9-5.5,3.7-8.5c-1.6-1.7-3.7-3-5.3-2c-1.6,0.9-2.1,2.9-1.2,4.4
			c0.1,0.1,0.2,0.3,0.3,0.4"/>
	</g>
</g>
</svg>
