<?xml version="1.0" encoding="utf-8"?>
<!-- Generator: Adobe Illustrator 24.0.0, SVG Export Plug-In . SVG Version: 6.00 Build 0)  -->
<svg version="1.1" id="Слой_1" xmlns="http://www.w3.org/2000/svg" xmlns:xlink="http://www.w3.org/1999/xlink" x="0px" y="0px"
	 viewBox="0 0 210.9 57.5" style="enable-background:new 0 0 210.9 57.5;" xml:space="preserve">
<style type="text/css">
	.st0{fill:#3E97D1;}
	.st1{font-family:'Montserrat-SemiBold';}
	.st2{font-size:16px;}
	.st3{font-size:25px;}
	.st4{fill:#FFFFFF;stroke:#3E97D1;stroke-width:2.397;stroke-linecap:round;stroke-linejoin:round;}
	.st5{fill:none;stroke:#3E97D1;stroke-width:2.397;stroke-linecap:round;stroke-linejoin:round;}
</style>
<g id="Group_1" transform="translate(-325.017 240.421)">
	<text transform="matrix(1 0 0 1 385.2551 -187.131)" class="st0 st1 st2">Гунявин</text>
	<text transform="matrix(1 0 0 1 385.2551 -202.131)" class="st0 st1 st2">Андрей</text>
	<text transform="matrix(1 0 0 1 383.9991 -219.171)" class="st1 st3">ПСИХОЛОГ</text>
	<g id="лого" transform="translate(290.808 -255.27)">
		<path id="Path_1" class="st4" d="M84,42.6c0,13.8-11.5,26.7-24.3,26.7c-5.5,0-14.3-0.8-18.3-4.3c-3.1-2.7,0.2-8.3-1.2-12.4
			c-0.5-1.3-4.5-0.7-4.8-2.1c-0.3-1.5,3.6-8.6,3.6-10.2c0-5.6,0.4-8.4,3.4-12.6c4.2-6.1,11.1-9.9,18.5-9.9
			C73.7,17.7,84,28.9,84,42.6z"/>
		<path id="Path_2" class="st5" d="M76.2,46.3c2.2-7.4-0.1-16-7.6-19.8c-4.7-2.3-10.4-3.3-15.4-0.2c-5.7,3.4-9,9.3-7.5,15.9
			c1.5,7.3,8.6,11.9,15.9,10.4c1.1-0.2,2.3-0.6,3.3-1.2c7.5-3.8,9.1-14.2,2.3-19.5c-5.6-4.2-14.8-1.6-15.9,5.7
			c-0.7,4.4,2.4,8.6,6.8,9.2c1,0.2,2.1,0.1,3.1-0.1c3.1-1,5.9-5.5,3.7-8.5c-1.6-1.7-3.7-3-5.3-2c-1.6,0.9-2.1,2.9-1.2,4.4
			c0.1,0.1,0.2,0.3,0.3,0.4"/>
	</g>
</g>
</svg>
